<mxfile host="app.diagrams.net" agent="Mozilla/5.0 (Windows NT 10.0; Win64; x64) AppleWebKit/537.36 (KHTML, like Gecko) Chrome/127.0.0.0 Safari/537.36" version="24.7.7">
  <diagram name="Página-1" id="OA8d4gRpMInPZXXcdpzA">
    <mxGraphModel dx="1434" dy="772" grid="1" gridSize="10" guides="1" tooltips="1" connect="1" arrows="1" fold="1" page="1" pageScale="1" pageWidth="827" pageHeight="1169" math="0" shadow="0">
      <root>
        <mxCell id="0" />
        <mxCell id="1" parent="0" />
        <mxCell id="-46yAr2evVMg8stc4uNO-16" value="Cliente&amp;nbsp;" style="whiteSpace=wrap;html=1;" parent="1" vertex="1">
          <mxGeometry x="10" y="50" width="170" height="60" as="geometry" />
        </mxCell>
        <mxCell id="-46yAr2evVMg8stc4uNO-18" value="Garçom" style="whiteSpace=wrap;html=1;" parent="1" vertex="1">
          <mxGeometry x="180" y="50" width="170" height="60" as="geometry" />
        </mxCell>
        <mxCell id="-46yAr2evVMg8stc4uNO-19" value="Cozinheiro" style="whiteSpace=wrap;html=1;" parent="1" vertex="1">
          <mxGeometry x="350" y="50" width="170" height="60" as="geometry" />
        </mxCell>
        <mxCell id="-46yAr2evVMg8stc4uNO-20" value="Caixa" style="whiteSpace=wrap;html=1;" parent="1" vertex="1">
          <mxGeometry x="520" y="50" width="170" height="60" as="geometry" />
        </mxCell>
        <mxCell id="-46yAr2evVMg8stc4uNO-21" value="Administrador&amp;nbsp;" style="whiteSpace=wrap;html=1;" parent="1" vertex="1">
          <mxGeometry x="680" y="50" width="170" height="60" as="geometry" />
        </mxCell>
        <mxCell id="-46yAr2evVMg8stc4uNO-22" value="" style="endArrow=none;html=1;rounded=0;" parent="1" edge="1">
          <mxGeometry width="50" height="50" relative="1" as="geometry">
            <mxPoint x="10" y="1161.7777506510417" as="sourcePoint" />
            <mxPoint x="10" y="110" as="targetPoint" />
          </mxGeometry>
        </mxCell>
        <mxCell id="-46yAr2evVMg8stc4uNO-23" value="" style="endArrow=none;html=1;rounded=0;" parent="1" edge="1">
          <mxGeometry width="50" height="50" relative="1" as="geometry">
            <mxPoint x="170" y="1160" as="sourcePoint" />
            <mxPoint x="180" y="110" as="targetPoint" />
          </mxGeometry>
        </mxCell>
        <mxCell id="-46yAr2evVMg8stc4uNO-24" value="" style="endArrow=none;html=1;rounded=0;" parent="1" edge="1">
          <mxGeometry width="50" height="50" relative="1" as="geometry">
            <mxPoint x="350" y="1165.333251953125" as="sourcePoint" />
            <mxPoint x="350" y="110" as="targetPoint" />
          </mxGeometry>
        </mxCell>
        <mxCell id="-46yAr2evVMg8stc4uNO-25" value="" style="endArrow=none;html=1;rounded=0;" parent="1" edge="1">
          <mxGeometry width="50" height="50" relative="1" as="geometry">
            <mxPoint x="520" y="1160.888943142361" as="sourcePoint" />
            <mxPoint x="520" y="110" as="targetPoint" />
          </mxGeometry>
        </mxCell>
        <mxCell id="-46yAr2evVMg8stc4uNO-26" value="" style="endArrow=none;html=1;rounded=0;" parent="1" edge="1">
          <mxGeometry width="50" height="50" relative="1" as="geometry">
            <mxPoint x="850" y="1160.888943142361" as="sourcePoint" />
            <mxPoint x="850" y="110" as="targetPoint" />
          </mxGeometry>
        </mxCell>
        <mxCell id="-46yAr2evVMg8stc4uNO-27" value="" style="endArrow=none;html=1;rounded=0;" parent="1" edge="1">
          <mxGeometry width="50" height="50" relative="1" as="geometry">
            <mxPoint x="680" y="1161.7777506510417" as="sourcePoint" />
            <mxPoint x="680" y="110" as="targetPoint" />
          </mxGeometry>
        </mxCell>
        <mxCell id="-46yAr2evVMg8stc4uNO-29" value="" style="shape=waypoint;sketch=0;fillStyle=solid;size=6;pointerEvents=1;points=[];fillColor=none;resizable=0;rotatable=0;perimeter=centerPerimeter;snapToPoint=1;" parent="1" vertex="1">
          <mxGeometry x="30" y="150" width="20" height="20" as="geometry" />
        </mxCell>
        <mxCell id="-46yAr2evVMg8stc4uNO-30" value="" style="endArrow=classic;html=1;rounded=0;" parent="1" edge="1">
          <mxGeometry width="50" height="50" relative="1" as="geometry">
            <mxPoint x="40" y="160" as="sourcePoint" />
            <mxPoint x="80" y="160" as="targetPoint" />
          </mxGeometry>
        </mxCell>
        <mxCell id="-46yAr2evVMg8stc4uNO-34" style="edgeStyle=orthogonalEdgeStyle;rounded=0;orthogonalLoop=1;jettySize=auto;html=1;" parent="1" source="-46yAr2evVMg8stc4uNO-33" edge="1">
          <mxGeometry relative="1" as="geometry">
            <mxPoint x="200" y="160" as="targetPoint" />
          </mxGeometry>
        </mxCell>
        <mxCell id="-46yAr2evVMg8stc4uNO-33" value="Efetuar o&amp;nbsp;&lt;span style=&quot;background-color: initial;&quot;&gt;pedido&amp;nbsp;&lt;/span&gt;" style="rounded=0;whiteSpace=wrap;html=1;" parent="1" vertex="1">
          <mxGeometry x="80" y="140" width="80" height="40" as="geometry" />
        </mxCell>
        <mxCell id="-46yAr2evVMg8stc4uNO-35" value="Anotar o pedido&amp;nbsp;" style="rounded=0;whiteSpace=wrap;html=1;" parent="1" vertex="1">
          <mxGeometry x="200" y="140" width="80" height="40" as="geometry" />
        </mxCell>
        <mxCell id="-46yAr2evVMg8stc4uNO-36" value="" style="endArrow=classic;html=1;rounded=0;" parent="1" edge="1">
          <mxGeometry width="50" height="50" relative="1" as="geometry">
            <mxPoint x="280" y="160" as="sourcePoint" />
            <mxPoint x="370" y="160" as="targetPoint" />
          </mxGeometry>
        </mxCell>
        <mxCell id="-46yAr2evVMg8stc4uNO-40" value="" style="edgeStyle=orthogonalEdgeStyle;rounded=0;orthogonalLoop=1;jettySize=auto;html=1;" parent="1" source="-46yAr2evVMg8stc4uNO-37" target="-46yAr2evVMg8stc4uNO-39" edge="1">
          <mxGeometry relative="1" as="geometry" />
        </mxCell>
        <mxCell id="-46yAr2evVMg8stc4uNO-37" value="Acessa o pedido&amp;nbsp;" style="whiteSpace=wrap;html=1;" parent="1" vertex="1">
          <mxGeometry x="374" y="140" width="80" height="40" as="geometry" />
        </mxCell>
        <mxCell id="-46yAr2evVMg8stc4uNO-43" value="" style="edgeStyle=orthogonalEdgeStyle;rounded=0;orthogonalLoop=1;jettySize=auto;html=1;" parent="1" source="-46yAr2evVMg8stc4uNO-39" target="-46yAr2evVMg8stc4uNO-42" edge="1">
          <mxGeometry relative="1" as="geometry" />
        </mxCell>
        <mxCell id="-46yAr2evVMg8stc4uNO-47" value="" style="edgeStyle=orthogonalEdgeStyle;rounded=0;orthogonalLoop=1;jettySize=auto;html=1;" parent="1" source="-46yAr2evVMg8stc4uNO-39" target="-46yAr2evVMg8stc4uNO-46" edge="1">
          <mxGeometry relative="1" as="geometry" />
        </mxCell>
        <mxCell id="-46yAr2evVMg8stc4uNO-39" value="Produz o pedido&amp;nbsp;" style="whiteSpace=wrap;html=1;" parent="1" vertex="1">
          <mxGeometry x="374" y="260" width="80" height="40" as="geometry" />
        </mxCell>
        <mxCell id="-46yAr2evVMg8stc4uNO-45" value="" style="edgeStyle=orthogonalEdgeStyle;rounded=0;orthogonalLoop=1;jettySize=auto;html=1;" parent="1" source="-46yAr2evVMg8stc4uNO-42" target="-46yAr2evVMg8stc4uNO-44" edge="1">
          <mxGeometry relative="1" as="geometry" />
        </mxCell>
        <mxCell id="-46yAr2evVMg8stc4uNO-42" value="Leva o pedido ao cliente" style="whiteSpace=wrap;html=1;" parent="1" vertex="1">
          <mxGeometry x="214" y="260" width="80" height="40" as="geometry" />
        </mxCell>
        <mxCell id="-46yAr2evVMg8stc4uNO-44" value="Consome o pedido" style="whiteSpace=wrap;html=1;" parent="1" vertex="1">
          <mxGeometry x="54" y="260" width="80" height="40" as="geometry" />
        </mxCell>
        <mxCell id="-46yAr2evVMg8stc4uNO-57" style="edgeStyle=orthogonalEdgeStyle;rounded=0;orthogonalLoop=1;jettySize=auto;html=1;entryX=0.5;entryY=0;entryDx=0;entryDy=0;" parent="1" source="-46yAr2evVMg8stc4uNO-46" target="-46yAr2evVMg8stc4uNO-48" edge="1">
          <mxGeometry relative="1" as="geometry" />
        </mxCell>
        <mxCell id="-46yAr2evVMg8stc4uNO-46" value="Entrega de pedido&amp;nbsp;" style="whiteSpace=wrap;html=1;" parent="1" vertex="1">
          <mxGeometry x="534" y="260" width="80" height="40" as="geometry" />
        </mxCell>
        <mxCell id="-46yAr2evVMg8stc4uNO-58" style="edgeStyle=orthogonalEdgeStyle;rounded=0;orthogonalLoop=1;jettySize=auto;html=1;" parent="1" source="-46yAr2evVMg8stc4uNO-48" edge="1">
          <mxGeometry relative="1" as="geometry">
            <mxPoint x="720" y="300" as="targetPoint" />
          </mxGeometry>
        </mxCell>
        <mxCell id="-46yAr2evVMg8stc4uNO-48" value="Recebe o pagamento" style="rounded=0;whiteSpace=wrap;html=1;" parent="1" vertex="1">
          <mxGeometry x="535" y="332" width="80" height="40" as="geometry" />
        </mxCell>
        <mxCell id="-46yAr2evVMg8stc4uNO-53" value="" style="endArrow=none;html=1;rounded=0;" parent="1" edge="1">
          <mxGeometry width="50" height="50" relative="1" as="geometry">
            <mxPoint x="90" y="352" as="sourcePoint" />
            <mxPoint x="90" y="302" as="targetPoint" />
          </mxGeometry>
        </mxCell>
        <mxCell id="-46yAr2evVMg8stc4uNO-54" value="" style="endArrow=classic;html=1;rounded=0;" parent="1" target="-46yAr2evVMg8stc4uNO-48" edge="1">
          <mxGeometry width="50" height="50" relative="1" as="geometry">
            <mxPoint x="90" y="350" as="sourcePoint" />
            <mxPoint x="140" y="300" as="targetPoint" />
          </mxGeometry>
        </mxCell>
        <mxCell id="-46yAr2evVMg8stc4uNO-55" value="" style="endArrow=classic;html=1;rounded=0;" parent="1" edge="1">
          <mxGeometry width="50" height="50" relative="1" as="geometry">
            <mxPoint x="90" y="352" as="sourcePoint" />
            <mxPoint x="90" y="402" as="targetPoint" />
          </mxGeometry>
        </mxCell>
        <mxCell id="-46yAr2evVMg8stc4uNO-56" value="Avalia o pedido" style="rounded=0;whiteSpace=wrap;html=1;" parent="1" vertex="1">
          <mxGeometry x="50" y="410" width="80" height="40" as="geometry" />
        </mxCell>
        <mxCell id="-46yAr2evVMg8stc4uNO-61" value="" style="edgeStyle=orthogonalEdgeStyle;rounded=0;orthogonalLoop=1;jettySize=auto;html=1;" parent="1" source="-46yAr2evVMg8stc4uNO-59" target="-46yAr2evVMg8stc4uNO-60" edge="1">
          <mxGeometry relative="1" as="geometry" />
        </mxCell>
        <mxCell id="-46yAr2evVMg8stc4uNO-59" value="Pagamento adicionado as finanças" style="rounded=0;whiteSpace=wrap;html=1;" parent="1" vertex="1">
          <mxGeometry x="700" y="260" width="80" height="40" as="geometry" />
        </mxCell>
        <mxCell id="-46yAr2evVMg8stc4uNO-60" value="Olha as finanças" style="rounded=0;whiteSpace=wrap;html=1;" parent="1" vertex="1">
          <mxGeometry x="700" y="140" width="80" height="40" as="geometry" />
        </mxCell>
      </root>
    </mxGraphModel>
  </diagram>
</mxfile>
